<?xml version="1.0" encoding="utf-8"?>
<!-- Generator: Adobe Illustrator 19.1.0, SVG Export Plug-In . SVG Version: 6.00 Build 0)  -->
<svg version="1.1" id="Layer_1" xmlns="http://www.w3.org/2000/svg" xmlns:xlink="http://www.w3.org/1999/xlink" x="0px" y="0px"
	 viewBox="0 0 326 46.4" style="enable-background:new 0 0 326 46.4;" xml:space="preserve">
<style type="text/css">
	.st0{fill:url(#SVGID_1_);}
	.st1{fill:url(#SVGID_2_);}
	.st2{fill:url(#SVGID_3_);}
	.st3{fill:url(#SVGID_4_);}
	.st4{fill:url(#SVGID_5_);}
	.st5{fill:url(#SVGID_6_);}
	.st6{fill:url(#SVGID_7_);}
</style>
<linearGradient id="SVGID_1_" gradientUnits="userSpaceOnUse" x1="24.5327" y1="72.415" x2="11.2372" y2="-25.4882">
	<stop  offset="0" style="stop-color:#9B26AF"/>
	<stop  offset="1" style="stop-color:#FE5621"/>
</linearGradient>
<path class="st0" d="M38.6,23.2c0,3.2-0.6,6.1-1.8,8.9c-1.3,2.8-2.9,5.3-5,7.4c-2.1,2.1-4.6,3.8-7.4,5c-2.8,1.2-5.8,1.9-9,1.9H0
	l7.7-7.8h7.7c2.1,0,4.2-0.4,6-1.2c1.9-0.8,3.5-1.9,4.9-3.4c1.4-1.4,2.5-3.1,3.3-4.9c0.8-1.9,1.2-3.9,1.2-6s-0.4-4.1-1.2-6
	c-0.8-1.9-1.9-3.5-3.4-4.9c-1.4-1.4-3.1-2.6-4.9-3.4c-1.9-0.8-3.9-1.2-6-1.2H7.7L0,0h15.4c3.2,0,6.1,0.6,9,1.9
	c2.8,1.2,5.3,2.9,7.4,5c2.1,2.1,3.8,4.6,5,7.4C38,17,38.6,20,38.6,23.2z"/>
<linearGradient id="SVGID_2_" gradientUnits="userSpaceOnUse" x1="72.3595" y1="66.5765" x2="59.064" y2="-31.3266">
	<stop  offset="0" style="stop-color:#9B26AF"/>
	<stop  offset="1" style="stop-color:#FE5621"/>
</linearGradient>
<path class="st1" d="M81.9,0v7.8H58.7L51,0H81.9z M58.7,19.4h23.2v7.7H58.7H51v-7.7H58.7z M58.7,38.6h23.2v7.8H51v-0.6L58.7,38.6z"
	/>
<linearGradient id="SVGID_3_" gradientUnits="userSpaceOnUse" x1="116.5824" y1="61.2275" x2="103.2869" y2="-36.6756">
	<stop  offset="0" style="stop-color:#9B26AF"/>
	<stop  offset="1" style="stop-color:#FE5621"/>
</linearGradient>
<path class="st2" d="M105.6,27.1c-3.8,0-7-1.3-9.6-3.9c-2.6-2.7-3.9-5.9-3.9-9.6c0-3.7,1.3-6.8,3.9-9.5c2.6-2.7,5.8-4,9.6-4v7.8
	c-0.8,0-1.6,0.1-2.3,0.4c-0.8,0.3-1.3,0.7-1.9,1.3c-0.5,0.5-0.9,1.2-1.2,1.9c-0.3,0.7-0.4,1.4-0.4,2.2c0,1.6,0.5,3,1.6,4.1
	c1.2,1.2,2.5,1.7,4.2,1.7h11.5c3.8,0,7,1.3,9.6,3.9c2.7,2.7,4,5.9,4,9.6s-1.3,6.9-4,9.6c-2.6,2.6-5.8,3.9-9.6,3.9v-7.8
	c0.8,0,1.6-0.1,2.3-0.4c0.8-0.3,1.4-0.7,1.9-1.2c0.5-0.5,0.9-1.1,1.2-1.9c0.3-0.7,0.5-1.4,0.5-2.3c0-1.6-0.6-2.9-1.7-4.1
	c-1.2-1.2-2.5-1.7-4.1-1.7H105.6z"/>
<linearGradient id="SVGID_4_" gradientUnits="userSpaceOnUse" x1="164.6523" y1="55.3561" x2="151.3568" y2="-42.5471">
	<stop  offset="0" style="stop-color:#9B26AF"/>
	<stop  offset="1" style="stop-color:#FE5621"/>
</linearGradient>
<path class="st3" d="M175.1,23.2c2.7,2.6,4.1,5.9,4.1,9.7c0,1.9-0.3,3.6-1,5.2c-0.7,1.7-1.7,3.1-2.9,4.3c-1.2,1.3-2.7,2.2-4.3,3
	c-1.6,0.7-3.4,1-5.2,1h-17.4v-7.8h17.4c0.8,0,1.5-0.1,2.2-0.4c0.8-0.3,1.4-0.7,1.9-1.3c0.5-0.5,0.9-1.2,1.2-1.9
	c0.3-0.7,0.5-1.4,0.5-2.2c0-0.8-0.2-1.5-0.5-2.2c-0.3-0.7-0.7-1.3-1.2-1.9c-0.5-0.5-1.1-1-1.8-1.3c-0.8-0.3-1.5-0.5-2.3-0.5h-17.4
	h-7.7v-7.7h4.6h3.1h17.4c0.8,0,1.5-0.1,2.2-0.5c0.8-0.3,1.4-0.7,1.9-1.3c0.5-0.5,0.9-1.2,1.2-1.9c0.3-0.7,0.5-1.4,0.5-2.3
	c0-0.8-0.2-1.5-0.5-2.2c-0.3-0.7-0.7-1.3-1.2-1.9c-0.5-0.6-1.2-1-1.9-1.3c-0.7-0.3-1.4-0.4-2.2-0.4h-17.4L140.5,0h25.1
	c1.8,0,3.5,0.3,5.2,1c1.7,0.8,3.1,1.7,4.3,3c1.2,1.2,2.2,2.6,2.9,4.3c0.7,1.6,1,3.4,1,5.2C179.1,17.3,177.8,20.5,175.1,23.2z"/>
<linearGradient id="SVGID_5_" gradientUnits="userSpaceOnUse" x1="209.6213" y1="49.2492" x2="196.3258" y2="-48.654">
	<stop  offset="0" style="stop-color:#9B26AF"/>
	<stop  offset="1" style="stop-color:#FE5621"/>
</linearGradient>
<path class="st4" d="M201,0v1.3v26.8l-7.7,7.8V1.3V0H201z M224.2,38.6v7.8h-30.9l7.7-7.8H224.2z"/>
<linearGradient id="SVGID_6_" gradientUnits="userSpaceOnUse" x1="255.0871" y1="43.0748" x2="241.7916" y2="-54.8283">
	<stop  offset="0" style="stop-color:#9B26AF"/>
	<stop  offset="1" style="stop-color:#FE5621"/>
</linearGradient>
<path class="st5" d="M268.7,6.8c4.6,4.5,6.9,10,6.9,16.4c0,6.4-2.3,11.9-6.9,16.4c-4.5,4.5-9.9,6.8-16.4,6.8
	c-6.4,0-11.8-2.3-16.4-6.8c-4.5-4.5-6.8-9.9-6.8-16.4c0-6.4,2.3-11.8,6.8-16.4c4.5-4.5,9.9-6.8,16.4-6.8
	C258.8,0,264.2,2.3,268.7,6.8z M241.4,12.3c-3,3-4.5,6.7-4.5,10.9s1.4,7.9,4.5,11c3,3,6.7,4.5,11,4.5s7.9-1.4,10.9-4.5
	c3.1-3.1,4.5-6.7,4.5-11s-1.5-7.9-4.5-10.9c-3-3-6.7-4.5-10.9-4.5S244.5,9.2,241.4,12.3z"/>
<linearGradient id="SVGID_7_" gradientUnits="userSpaceOnUse" x1="306.5857" y1="36.0812" x2="293.2902" y2="-61.822">
	<stop  offset="0" style="stop-color:#9B26AF"/>
	<stop  offset="1" style="stop-color:#FE5621"/>
</linearGradient>
<path class="st6" d="M318.3,33.4L326,36c-1,1.6-2.3,3-3.7,4.3c-1.4,1.3-2.9,2.4-4.6,3.3c-1.6,0.9-3.4,1.6-5.3,2.1
	c-1.9,0.5-3.8,0.8-5.8,0.8c-6.4,0-11.8-2.3-16.4-6.8s-6.8-9.9-6.8-16.4c0-6.4,2.3-11.8,6.8-16.4c4.5-4.6,9.9-6.8,16.4-6.8
	c3.2,0,6.2,0.6,9,1.8c2.8,1.2,5.3,2.9,7.4,5l-5.6,5.5c-3-3-6.6-4.5-10.9-4.5c-4.2,0-7.9,1.4-11,4.5c-3,3-4.5,6.7-4.5,10.9
	s1.4,7.9,4.5,11c3,3,6.7,4.5,11,4.5c2.3,0,4.5-0.5,6.4-1.3C315,36.4,316.8,35.1,318.3,33.4z M306.6,19.4H326l-7.7,7.7h-11.7V19.4z"
	/>
</svg>
